<?xml version="1.0" encoding="utf-8"?>
<!-- Generator: Adobe Illustrator 21.0.2, SVG Export Plug-In . SVG Version: 6.00 Build 0)  -->
<svg version="1.1" id="Layer_1" xmlns="http://www.w3.org/2000/svg" xmlns:xlink="http://www.w3.org/1999/xlink" x="0px" y="0px"
	 viewBox="0 0 1920 1080" style="enable-background:new 0 0 1920 1080;" xml:space="preserve">
<style type="text/css">
	.st0{fill:url(#SVGID_1_);}
</style>
<g>
	<linearGradient id="SVGID_1_" gradientUnits="userSpaceOnUse" x1="665.4649" y1="136.1905" x2="1220.2795" y2="958.737">
		<stop  offset="0" style="stop-color:#F7931E"/>
		<stop  offset="8.690064e-02" style="stop-color:#F78F1D;stop-opacity:0.968"/>
		<stop  offset="0.1821" style="stop-color:#F8811A;stop-opacity:0.933"/>
		<stop  offset="0.2812" style="stop-color:#F96B16;stop-opacity:0.8965"/>
		<stop  offset="0.383" style="stop-color:#FB4D10;stop-opacity:0.859"/>
		<stop  offset="0.4859" style="stop-color:#FD2608;stop-opacity:0.8211"/>
		<stop  offset="0.5703" style="stop-color:#FF0000;stop-opacity:0.79"/>
		<stop  offset="0.7194" style="stop-color:#F2061C;stop-opacity:0.8629"/>
		<stop  offset="1" style="stop-color:#D4145A"/>
	</linearGradient>
	<path class="st0" d="M1444.8,549c-2.9,63.9-13.7,126.1-38.5,185.8c-21.9,52.7-52.8,99.4-90.2,141.8
		c-35.8,40.6-78.2,73.5-125.7,99.9c-35.5,19.7-72.8,35.3-112,46.1c-56.2,15.4-113.6,21.9-171.4,17.4c-47.2-3.7-93.9-12.7-138.5-30.1
		c-37.6-14.6-73.3-32.3-106.9-54.9c-27.4-18.4-52.6-39-75.9-62.2l-0.2-0.3c-1.3-1.5-2.5-3-3.8-4.4c-11.5-11.6-25.8-27.1-40.6-46.6
		c-11.4-14.9-32.5-43.9-51.4-84.6c-16.7-36-28.6-73.2-37.3-112c-10.2-45-10.7-90.2-8.3-135.4c2.7-51.5,15.6-101.2,35.7-149.1
		c22.8-54.6,54.1-103.7,94.3-146.7c41.8-44.8,90.2-81.4,145.9-107.8c9-4.3,17.7-9.3,28.8-12.2c0,17.3-0.2,34.2,0.1,51.1
		c0.1,4.6-2.1,6.4-5.7,8c-39,17.8-73.3,42.6-104.9,71.2c-45.6,41-79.8,90.1-105.1,146c-29.3,64.9-41.9,133-37.7,203.5
		c4,66.6,22.6,117.8,34.1,144.7c29.9,70.1,71.9,117.3,99.7,144c42.9,40.1,90.7,72,145.8,93.7c56.7,22.4,114.9,32.2,175.8,31.8
		c51.5-0.4,100.7-10.3,149-27.1c48.1-16.7,90.9-42.7,130-74.9c52-42.8,92.6-94.3,120.6-156c16.2-35.7,27.5-72.3,34.4-110.9
		c6.6-36.9,6.8-67.2,6.4-84.6c-1.6-70.9-20.1-123.9-29.3-147.1c-1.9-4.7-3.5-8.5-4.6-11c-11.9-21.3-21.7-43.8-35.2-64.2
		c-15.1-22.9-31.9-44.4-50.6-64.4c-34.2-36.6-73.9-66.1-118.1-89.5c-23.9-12.7-49.3-22.2-75-31c-56.5-19.2-114.7-21.2-173.3-19.5
		c-8.5,0.2-16.7,3.4-25.3,2.5c-6.8-0.7-6.5,4.5-6.4,9.1c0.7,24.4,1.7,48.7,1.9,73.1c0.6,56.5,0.5,113,1.3,169.5
		c0.7,48.7,2.4,97.4,3.6,146.1c0.1,2.4,0.2,4.7,0.4,7.1c61.5,0.2,123.1,0.4,184.6,0.6c7.7,0,15.4,0.2,23.1,0.2
		c15.4-0.3,30.9-0.6,46.3-0.9c0-70.4,0.3-140.7-0.3-211.1c-0.1-11.6,3.5-14.6,14.1-13.4c12.4,1.3,29.1-5.2,36.2,2.6
		c6.2,6.7,2.1,23.1,2.1,35.2c-0.1,65.5-0.3,131-0.4,196.4c0.1,48.3,0.3,96.7,0.3,145c0.1,45.1-0.2,90.2,0.2,135.3
		c0.1,8.5-2.3,11.5-10.9,10.9c-10.5-0.7-21.2-0.6-31.7,0c-7.5,0.4-9.7-2-9.6-9.5c0.4-36.6,0.1-73.1,0.1-109.7
		c0-42.7,0.1-85.3,0.2-128l-0.1-0.9c-31.8-0.4-63.6-0.8-95.4-1.2c-52.9,0.3-105.7,0.5-158.6,0.8c0.1,79.8,3.7,159.5,2.8,239.3
		c-0.1,9.9-2.6,12.7-12.1,11.9c-9.7-0.8-19.6-0.9-29.3,0c-9.5,0.9-11.8-3-11.8-11.6c0.1-16.7-0.9-33.3-1-50
		c-0.4-47.6,0.4-95.3-1.1-142.9c-1-31.3-1.6-62.6-0.9-93.9c-1.1-104.1-1.7-208.3-3.6-312.4c-0.8-42.7-1.6-85.4-1.7-128.1
		c0-8.1,0.7-12.1,11-14.3c48.3-10,97.1-15,146-10.9c31,2.6,62.1,7.5,92.6,15.7c42,11.4,82,26.7,119.5,48.3
		c41.8,24.1,79.8,52.9,113.6,87.9c39.5,40.9,70,87.4,94.7,138.2c0.7,1.4,0.9,3,1.4,4.5c19.2,40.1,31,82.3,36.7,126.3
		C1440.9,499.9,1446,524.3,1444.8,549z"/>
</g>
</svg>
